<?xml version="1.0" encoding="utf-8"?>
<!-- Generator: Adobe Illustrator 16.0.0, SVG Export Plug-In . SVG Version: 6.00 Build 0)  -->
<!DOCTYPE svg PUBLIC "-//W3C//DTD SVG 1.1//EN" "http://www.w3.org/Graphics/SVG/1.1/DTD/svg11.dtd">
<svg version="1.1" id="Layer_1" xmlns="http://www.w3.org/2000/svg" xmlns:xlink="http://www.w3.org/1999/xlink" x="0px" y="0px"
	 width="32.031px" height="31.977px" viewBox="0 0 32.031 31.977" enable-background="new 0 0 32.031 31.977" xml:space="preserve">
<g id="Phone_x5F_2">
	<g>
		<path fill="#FFFFFF" d="M30.989,2.59L30.09,1.692C28.981,0.585,27.379,0,25.459,0c-4.745,0-11.097,3.398-16.58,8.871
			C0.916,16.819-2.244,26.118,1.686,30.04l0.899,0.899c0.671,0.668,1.563,1.037,2.512,1.037s1.841-0.369,2.513-1.038l3.597-3.591
			c1.384-1.381,1.386-3.63,0-5.014l-0.899-0.897c-0.958-0.958-0.518-3.444,3.597-7.551c3.503-3.496,5.533-4.019,6.429-4.019
			c0.475,0,0.846,0.141,1.135,0.43l0.899,0.897c1.341,1.339,3.684,1.341,5.024,0l3.596-3.59c0.673-0.669,1.043-1.56,1.043-2.507
			S31.661,3.259,30.989,2.59z M29.561,6.179l-3.597,3.59c-0.58,0.578-1.589,0.58-2.168,0l-0.9-0.897
			c-0.668-0.667-1.553-1.02-2.562-1.02c-2.148,0-4.792,1.551-7.857,4.609c-6.325,6.312-4.622,9.376-3.597,10.4l0.899,0.897
			c0.598,0.597,0.598,1.567,0,2.164l-3.596,3.589c-0.582,0.579-1.591,0.578-2.17,0.001l-0.898-0.897
			c-3.025-3.02,0.269-11.408,7.193-18.318c5.041-5.031,10.989-8.281,15.152-8.281c1.393,0,2.47,0.37,3.203,1.102l0.898,0.897
			c0.29,0.29,0.45,0.675,0.45,1.083C30.011,5.505,29.851,5.889,29.561,6.179z"/>
	</g>
</g>
</svg>
