<?xml version="1.0" encoding="utf-8"?>
<!-- Generator: Adobe Illustrator 16.0.0, SVG Export Plug-In . SVG Version: 6.00 Build 0)  -->
<!DOCTYPE svg PUBLIC "-//W3C//DTD SVG 1.1//EN" "http://www.w3.org/Graphics/SVG/1.1/DTD/svg11.dtd">
<svg version="1.1" id="Layer_1" xmlns="http://www.w3.org/2000/svg" xmlns:xlink="http://www.w3.org/1999/xlink" x="0px" y="0px"
	 width="32px" height="32px" viewBox="0 0 32 32" enable-background="new 0 0 32 32" xml:space="preserve">
<g id="Web">
	<g>
		<path fill="#3F3F3F" d="M29,0H3C1.346,0,0,1.346,0,3v26c0,1.654,1.346,3,3,3h26c1.654,0,3-1.346,3-3V3C32,1.346,30.654,0,29,0z
			 M30,29c0,0.552-0.448,1-1,1H3c-0.552,0-1-0.448-1-1V3c0-0.551,0.448-1,1-1h26c0.552,0,1,0.449,1,1V29z M26,4H6
			C4.897,4,4,4.896,4,6v4c0,1.103,0.897,2,2,2h20c1.103,0,2-0.897,2-2V6C28,4.896,27.103,4,26,4z M6,10V6h20l0.001,4H6z M10,14H6
			c-1.103,0-2,0.897-2,2v10c0,1.103,0.897,2,2,2h4c1.103,0,2-0.897,2-2V16C12,14.897,11.103,14,10,14z M6,26V16h4l0.001,10H6z
			 M26,14H16c-1.103,0-2,0.897-2,2v10c0,1.103,0.897,2,2,2h10c1.103,0,2-0.897,2-2V16C28,14.897,27.103,14,26,14z M16,26V16h10
			l0.001,10H16z"/>
	</g>
</g>
</svg>
